# xmcd
#
# Track frame offsets:
#	150
#	14527
#	29182
#	43220
#	56250
#	69587
#	82157
#	98717
#	112160
#	126590
#	140567
#	152670
#	164680
#	175560
#
# Disc length: 2490 seconds
#
# Revision: 0
# Processed by: cddbd v1.5.2PL0 Copyright (c) Steve Scherf et al.
# Submitted via: EZCDAudioConverter 2.2.0.1
#
DISCID=ce09b80e
DTITLE=trio nordestino - corte o bolo
DYEAR=1979
DGENRE=forró
TTITLE0=na emenda
TTITLE1=ela beliscando ele
TTITLE2=dom francisco dom tomé
TTITLE3=bebé chorâo
TTITLE4=toque toque
TTITLE5=resto de amor
TTITLE6=corte o bolo
TTITLE7=amor nâo faz mal a miguém
TTITLE8=a capital do forró
TTITLE9=só me causa dor
TTITLE10=casa ciada
TTITLE11=forró xem
TTITLE12=o trofeu e nosso
TTITLE13=safra boa
EXTD=
EXTT0=
EXTT1=
EXTT2=
EXTT3=
EXTT4=
EXTT5=
EXTT6=
EXTT7=
EXTT8=
EXTT9=
EXTT10=
EXTT11=
EXTT12=
EXTT13=
PLAYORDER=
